<svg width="134" height="134" viewBox="0 0 134 134" fill="none" xmlns="http://www.w3.org/2000/svg">
<path fill-rule="evenodd" clip-rule="evenodd" d="M67 134C104.003 134 134 104.003 134 67C134 29.9969 104.003 0 67 0C29.9969 0 0 29.9969 0 67C0 104.003 29.9969 134 67 134ZM67 130.41C31.9797 130.41 3.59005 102.02 3.59005 67C3.59005 31.9797 31.9797 3.59005 67 3.59005C102.02 3.59005 130.41 31.9797 130.41 67C130.41 102.02 102.02 130.41 67 130.41ZM66.5 96C82.2401 96 95 83.2401 95 67.5C95 51.7599 82.2401 39 66.5 39C50.7599 39 38 51.7599 38 67.5C38 83.2401 50.7599 96 66.5 96ZM66.5 93.15C52.3339 93.15 40.85 81.6661 40.85 67.5C40.85 53.3339 52.3339 41.85 66.5 41.85C80.6661 41.85 92.15 53.3339 92.15 67.5C92.15 81.6661 80.6661 93.15 66.5 93.15ZM42.9285 33.1907C42.4941 33.5442 42.0797 33.7954 41.6853 33.9445C41.3012 34.0851 40.9394 34.1474 40.5999 34.1315C40.2622 34.0968 39.951 33.989 39.6663 33.8081C39.3816 33.6272 39.1215 33.392 38.8858 33.1024L38.4567 32.575C38.221 32.2854 38.0436 31.9828 37.9244 31.6673C37.8052 31.3518 37.7671 31.0304 37.8102 30.7031C37.8552 30.357 37.9856 30.0103 38.2014 29.6628C38.4275 29.3069 38.7577 28.9522 39.1921 28.5988C39.6265 28.2454 40.0357 27.9983 40.4198 27.8577C40.8142 27.7087 41.1802 27.6515 41.5179 27.6862C41.8574 27.7021 42.1696 27.8005 42.4543 27.9814C42.739 28.1623 42.9991 28.3975 43.2348 28.6871L43.6639 29.2146C43.8996 29.5041 44.077 29.8067 44.1962 30.1222C44.3155 30.4378 44.3526 30.7686 44.3075 31.1146C44.2644 31.4419 44.1298 31.7835 43.9037 32.1394C43.6879 32.4868 43.3629 32.8373 42.9285 33.1907ZM30.3306 53.066C31.0483 52.8036 31.6137 52.1806 32.0269 51.1972L33.5065 47.6754L31.3861 46.7845L29.8289 50.4907L24.5555 48.2751L26.1126 44.5689L23.9921 43.678L22.435 47.3842L19.0792 45.9743L18.0256 48.482L20.2567 49.4193C20.6869 49.6001 20.9458 49.8101 21.0333 50.0493C21.1208 50.2886 21.0793 50.611 20.9089 51.0167L20.2039 52.6946L22.3244 53.5855L23.4089 51.004L28.0555 52.9562C28.8545 53.2919 29.6129 53.3285 30.3306 53.066ZM27.2437 60.1084L27.2289 60.2275C27.783 60.5251 28.2345 60.9442 28.5836 61.485C28.9343 62.0125 29.0585 62.6864 28.9561 63.5067C28.895 63.9962 28.7594 64.4361 28.5495 64.8265C28.3263 65.2152 28.0312 65.5344 27.6641 65.7842C27.297 66.034 26.8645 66.2152 26.3668 66.3277C25.8706 66.427 25.3117 66.4379 24.6898 66.3603L18.0612 65.533L18.4278 62.5958L24.6595 63.3735C25.9826 63.5387 26.7159 63.0457 26.8596 61.8946C26.8877 61.6697 26.8884 61.4481 26.8619 61.2298C26.8239 60.9966 26.7552 60.7932 26.6559 60.6196C26.5451 60.4311 26.4037 60.2723 26.2316 60.1434C26.0596 60.0144 25.8479 59.9342 25.5965 59.9029L18.8687 59.0632L19.2353 56.126L29.4759 57.4041L29.1093 60.3413L27.2437 60.1084ZM19.4078 78.7708L29.6128 77.2346L29.1722 74.3075L22.4678 75.3168C22.2173 75.3545 21.9928 75.3411 21.7943 75.2766C21.5938 75.1989 21.4213 75.0833 21.2769 74.9298C21.1192 74.7782 20.9982 74.6009 20.9137 74.3979C20.814 74.1837 20.7473 73.9645 20.7136 73.7404C20.5409 72.5933 21.1138 71.9205 22.4323 71.722L28.6423 70.7872L28.2017 67.8602L21.5961 68.8546C20.9764 68.9478 20.4421 69.1159 19.9933 69.3588C19.5425 69.5884 19.1741 69.8731 18.8881 70.2128C18.6022 70.5525 18.4108 70.9386 18.3141 71.3711C18.2043 71.8057 18.186 72.2669 18.2595 72.7547C18.321 73.1634 18.4359 73.5237 18.6042 73.8354C18.7573 74.136 18.9516 74.3966 19.1871 74.6174C19.4074 74.8269 19.6557 74.9985 19.932 75.1322C20.2083 75.2659 20.5005 75.3702 20.8084 75.4452L20.8263 75.5639L18.9672 75.8438L19.4078 78.7708ZM31.9929 82.611C32.3212 83.3405 32.5074 84.0463 32.5512 84.7284C32.583 85.416 32.4791 86.0622 32.2396 86.6672C31.9947 87.26 31.6176 87.8026 31.1082 88.2951C30.5988 88.7876 29.9611 89.2063 29.1951 89.5511C28.4292 89.8959 27.693 90.0957 26.9865 90.1505C26.2801 90.2054 25.6238 90.1279 25.0177 89.9183C24.406 89.6965 23.8595 89.343 23.3779 88.8579C22.8842 88.3783 22.4731 87.7738 22.1447 87.0443C21.8163 86.3148 21.6363 85.6063 21.6046 84.9187C21.5607 84.2366 21.6612 83.5991 21.9061 83.0063C22.1456 82.4014 22.52 81.8527 23.0294 81.3602C23.5388 80.8677 24.1765 80.449 24.9424 80.1042C25.7084 79.7594 26.4446 79.5596 27.151 79.5048C27.8575 79.4499 28.5165 79.5334 29.1281 79.7552C29.7343 79.9649 30.2842 80.3095 30.7779 80.7891C31.2595 81.2742 31.6645 81.8815 31.9929 82.611ZM29.9868 83.5141C29.7131 82.9062 29.3112 82.5168 28.781 82.3461C28.2509 82.1753 27.6393 82.2459 26.9463 82.5579L25.4508 83.2311C24.7578 83.5431 24.2995 83.9541 24.0758 84.4642C23.8522 84.9743 23.8772 85.5333 24.1508 86.1412C24.4245 86.7491 24.8264 87.1385 25.3565 87.3092C25.8867 87.48 26.4983 87.4094 27.1913 87.0974L28.6868 86.4242C29.3798 86.1122 29.8381 85.7012 30.0618 85.1911C30.2854 84.681 30.2604 84.122 29.9868 83.5141ZM26.6965 100.808L29.5837 104.26L40.2917 95.3032L37.4045 91.8515C36.1983 90.4094 34.8441 89.7256 33.342 89.8001C31.8398 89.8745 30.2245 90.6346 28.4961 92.0804C26.7677 93.5261 25.7341 94.9816 25.3954 96.447C25.0566 97.9124 25.4903 99.3661 26.6965 100.808ZM33.8054 92.5674C34.5104 92.5166 35.1494 92.8338 35.7226 93.519L36.5823 94.5469L29.4948 100.475L28.6351 99.4473C28.0619 98.7621 27.8626 98.0771 28.0372 97.3922C28.2118 96.7073 28.7133 96.0184 29.5417 95.3255L31.49 93.6958C32.3286 92.9943 33.1004 92.6182 33.8054 92.5674ZM40.4856 113.705L38.0437 112.032L42.7912 105.102L42.6757 105.023L40.6216 105.58L37.5398 106.256L34.7349 104.335L40.3407 103.23L40.221 95.5837L43.1249 97.5731L43.0226 103.03L44.3849 102.776L46.4083 99.8225L48.8502 101.495L40.4856 113.705ZM55.4646 114.929L58.78 105.156L55.9769 104.205L53.7988 110.626C53.7174 110.866 53.6025 111.059 53.4541 111.206C53.2932 111.349 53.1113 111.449 52.9086 111.507C52.7016 111.577 52.4886 111.604 52.2694 111.586C52.0333 111.576 51.808 111.535 51.5933 111.462C50.4948 111.089 50.1598 110.271 50.5881 109.009L52.6056 103.062L49.8026 102.111L47.6565 108.437C47.4552 109.03 47.3595 109.582 47.3694 110.092C47.3667 110.598 47.4507 111.056 47.6214 111.466C47.7921 111.876 48.0475 112.223 48.3875 112.507C48.7232 112.804 49.1247 113.032 49.5919 113.19C49.9833 113.323 50.3561 113.386 50.7103 113.38C51.0476 113.382 51.3684 113.328 51.6725 113.22C51.9598 113.121 52.2262 112.979 52.4717 112.795C52.7172 112.61 52.9439 112.399 53.1518 112.159L53.2655 112.198L52.6615 113.978L55.4646 114.929ZM60.9018 105.547C61.5143 105.58 61.9987 105.759 62.3551 106.085C62.7108 106.425 62.9062 106.889 62.9414 107.479L63.0413 107.484C63.2641 106.815 63.6643 106.322 64.242 106.006C64.8064 105.689 65.4881 105.552 66.2869 105.595C67.2855 105.648 68.0768 105.958 68.6607 106.523C69.2306 107.101 69.4896 107.876 69.4375 108.848C69.3798 109.927 68.9443 110.704 68.1309 111.182C67.3176 111.659 66.152 111.857 64.6342 111.775L62.9766 111.687L62.9487 112.206C62.916 112.818 63.0378 113.286 63.3143 113.608C63.5768 113.942 64.0476 114.127 64.7266 114.164C65.3524 114.197 65.8648 114.105 66.2637 113.886C66.6626 113.667 67.0123 113.372 67.3125 113L68.8532 114.525C68.4757 115.092 67.9108 115.543 67.1586 115.876C66.3923 116.222 65.43 116.365 64.2716 116.303C62.8603 116.227 61.7794 115.842 61.0288 115.148C60.2641 114.466 59.9167 113.472 59.9866 112.168L60.2282 107.654L59.0898 107.593L59.2042 105.456L60.9018 105.547ZM65.0648 107.472C64.5456 107.445 64.0994 107.548 63.7264 107.781C63.3534 108.015 63.154 108.371 63.1284 108.851L63.0621 110.089L64.6398 110.173C65.8514 110.238 66.479 109.865 66.5224 109.053L66.5438 108.653C66.5631 108.294 66.4379 108.013 66.1683 107.812C65.8986 107.61 65.5308 107.497 65.0648 107.472ZM78.3902 118.56L82.7816 117.577L79.7338 103.954L75.3424 104.937C73.5078 105.347 72.279 106.237 71.6562 107.606C71.0334 108.975 70.968 110.759 71.4599 112.958C71.9519 115.157 72.7713 116.743 73.918 117.716C75.0648 118.689 76.5555 118.97 78.3902 118.56ZM74.3279 108.463C74.606 107.814 75.181 107.391 76.0528 107.196L77.3605 106.904L79.3778 115.921L78.0701 116.213C77.1983 116.408 76.4982 116.271 75.9696 115.802C75.4411 115.333 75.0589 114.571 74.8232 113.517L74.2686 111.038C74.0299 109.971 74.0497 109.113 74.3279 108.463ZM92.2114 100.655C92.636 100.29 93.0435 100.028 93.4337 99.868C93.8138 99.7171 94.1738 99.645 94.5137 99.6517C94.8521 99.6772 95.1661 99.7765 95.4556 99.9496C95.7451 100.123 96.0116 100.351 96.255 100.634L96.6983 101.15C96.9416 101.433 97.1272 101.73 97.2549 102.043C97.3827 102.355 97.4294 102.675 97.3952 103.003C97.3596 103.35 97.2386 103.701 97.0323 104.054C96.8159 104.416 96.4954 104.779 96.0708 105.144C95.6461 105.509 95.2438 105.767 94.8636 105.918C94.4734 106.078 94.109 106.145 93.7706 106.119C93.4307 106.113 93.116 106.023 92.8265 105.85C92.537 105.677 92.2706 105.449 92.0272 105.165L91.5839 104.65C91.3405 104.367 91.155 104.069 91.0272 103.757C90.8995 103.445 90.8535 103.115 90.8891 102.768C90.9233 102.44 91.0486 102.094 91.265 101.733C91.4713 101.379 91.7868 101.02 92.2114 100.655ZM104.266 80.4459C103.556 80.7278 103.008 81.3658 102.621 82.36L101.238 85.9206L103.381 86.7537L104.838 83.0067L110.169 85.0787L108.713 88.8257L110.857 89.6588L112.313 85.9118L115.706 87.2303L116.691 84.695L114.435 83.8184C114 83.6494 113.736 83.4465 113.642 83.2097C113.548 82.9729 113.581 82.6495 113.74 82.2394L114.399 80.543L112.256 79.7098L111.241 82.3197L106.544 80.4941C105.736 80.1801 104.977 80.1641 104.266 80.4459ZM107.161 73.3225L107.173 73.2031C106.611 72.9206 106.148 72.5138 105.785 71.9828C105.42 71.465 105.277 70.7947 105.358 69.9719C105.405 69.4809 105.529 69.0375 105.728 68.6416C105.941 68.247 106.227 67.9199 106.587 67.6602C106.948 67.4006 107.375 67.2078 107.87 67.0818C108.363 66.969 108.921 66.9431 109.545 67.0038L116.194 67.6513L115.907 70.5973L109.656 69.9886C108.329 69.8594 107.609 70.372 107.497 71.5266C107.475 71.7522 107.48 71.9737 107.513 72.1912C107.557 72.4233 107.631 72.6248 107.735 72.7956C107.851 72.9811 107.997 73.1359 108.172 73.2602C108.348 73.3844 108.561 73.4589 108.813 73.4834L115.562 74.1406L115.275 77.0866L105.003 76.0863L105.29 73.1403L107.161 73.3225ZM114.489 54.4548L104.329 56.2669L104.849 59.1809L111.524 57.9904C111.773 57.946 111.998 57.9533 112.198 58.0124C112.4 58.0846 112.576 58.1955 112.725 58.3451C112.886 58.4923 113.012 58.6663 113.102 58.8669C113.208 59.0783 113.28 59.2956 113.32 59.5188C113.524 60.6608 112.969 61.3488 111.657 61.5829L105.474 62.6856L105.994 65.5996L112.57 64.4267C113.187 64.3167 113.716 64.1342 114.159 63.8793C114.603 63.6375 114.964 63.3429 115.24 62.9956C115.517 62.6483 115.698 62.2572 115.783 61.8222C115.881 61.3848 115.886 60.9233 115.8 60.4376C115.727 60.0307 115.603 59.6737 115.426 59.3666C115.265 59.0703 115.063 58.815 114.822 58.6008C114.596 58.3973 114.343 58.2324 114.063 58.1063C113.784 57.9801 113.489 57.8837 113.179 57.8171L113.158 57.699L115.009 57.3689L114.489 54.4548ZM101.804 50.9568C101.456 50.2365 101.251 49.536 101.189 48.8553C101.139 48.1688 101.225 47.52 101.448 46.9088C101.677 46.3096 102.039 45.7569 102.535 45.2508C103.031 44.7447 103.657 44.3089 104.413 43.9435C105.17 43.578 105.9 43.3584 106.605 43.2844C107.309 43.2105 107.968 43.2701 108.579 43.4633C109.197 43.6685 109.753 44.007 110.247 44.4788C110.754 44.9449 111.181 45.5381 111.529 46.2584C111.877 46.9787 112.076 47.6821 112.126 48.3686C112.189 49.0493 112.106 49.6892 111.877 50.2884C111.654 50.8996 111.294 51.4583 110.798 51.9644C110.303 52.4705 109.677 52.9063 108.92 53.2717C108.164 53.6372 107.433 53.8568 106.729 53.9308C106.024 54.0047 105.363 53.9391 104.745 53.7339C104.134 53.5407 103.575 53.2111 103.068 52.7451C102.574 52.2732 102.152 51.6771 101.804 50.9568ZM103.785 49.9997C104.075 50.6 104.488 50.9783 105.022 51.1346C105.557 51.291 106.166 51.2038 106.851 50.8732L108.327 50.1597C109.012 49.8291 109.459 49.4058 109.668 48.8898C109.878 48.3739 109.838 47.8158 109.548 47.2155C109.258 46.6152 108.846 46.2369 108.311 46.0806C107.776 45.9242 107.167 46.0114 106.483 46.342L105.006 47.0555C104.322 47.3861 103.875 47.8094 103.665 48.3254C103.455 48.8413 103.495 49.3994 103.785 49.9997ZM106.606 32.623L103.626 29.2508L93.165 38.4941L96.1446 41.8664C97.3895 43.2752 98.7617 43.9221 100.261 43.807C101.761 43.6918 103.355 42.8883 105.044 41.3963C106.732 39.9043 107.726 38.4213 108.025 36.9473C108.324 35.4733 107.851 34.0318 106.606 32.623ZM99.723 41.0532C99.0197 41.1231 98.3723 40.8233 97.7808 40.1539L96.8935 39.1497L103.818 33.0316L104.705 34.0357C105.297 34.7052 105.514 35.3846 105.358 36.074C105.202 36.7634 104.72 37.4656 103.91 38.1807L102.007 39.8625C101.188 40.5864 100.426 40.9833 99.723 41.0532ZM92.4728 20.1042L94.9591 21.7104L90.4011 28.7662L90.5187 28.8422L92.5569 28.2302L95.6193 27.4704L98.4752 29.3153L92.9014 30.5719L93.2281 38.2117L90.2714 36.3017L90.2258 30.8435L88.8709 31.1349L86.9283 34.1421L84.4419 32.5359L92.4728 20.1042ZM77.4662 19.2861L74.4166 29.1452L77.2444 30.0199L79.2479 23.5427C79.3228 23.3007 79.4324 23.1043 79.5767 22.9535C79.7338 22.8067 79.9128 22.7016 80.1139 22.6382C80.3189 22.562 80.5311 22.53 80.7507 22.5421C80.9869 22.5454 81.2133 22.5805 81.4299 22.6475C82.5381 22.9902 82.8952 23.7985 82.5012 25.0723L80.6455 31.0719L83.4733 31.9466L85.4472 25.5649C85.6324 24.9662 85.7131 24.4119 85.6893 23.9022C85.6783 23.3963 85.582 22.9408 85.4002 22.5357C85.2185 22.1306 84.9538 21.7905 84.6062 21.5155C84.2626 21.2278 83.8551 21.011 83.3838 20.8653C82.9889 20.7431 82.6145 20.6901 82.2606 20.7063C81.9234 20.7136 81.6042 20.7754 81.3031 20.8916C81.0186 20.999 80.7562 21.1481 80.5157 21.3389C80.2753 21.5297 80.0544 21.7475 79.8531 21.9923L79.7384 21.9568L80.294 20.1608L77.4662 19.2861ZM72.285 28.8121C71.6719 28.7959 71.1828 28.6296 70.8177 28.3132C70.4529 27.9834 70.245 27.5245 70.1938 26.9362L70.0939 26.9336C69.8893 27.6084 69.5026 28.1117 68.9336 28.4435C68.378 28.7756 67.7003 28.9311 66.9006 28.91C65.9009 28.8836 65.1016 28.5957 64.5025 28.0464C63.9172 27.4841 63.6373 26.7164 63.663 25.7434C63.6915 24.6638 64.1059 23.8745 64.906 23.3754C65.7061 22.8764 66.8659 22.6469 68.3853 22.687L70.0448 22.7308L70.0585 22.211C70.0747 21.5979 69.9402 21.1342 69.6551 20.8199C69.3836 20.4926 68.908 20.32 68.2282 20.302C67.6018 20.2855 67.0921 20.3921 66.6993 20.6218C66.3064 20.8515 65.9649 21.1559 65.6748 21.5351L64.0934 20.0528C64.4554 19.4755 65.0079 19.0099 65.7508 18.6561C66.5074 18.2893 67.4655 18.1211 68.6251 18.1518C70.038 18.1891 71.129 18.5447 71.8981 19.2185C72.6809 19.8794 73.0551 20.863 73.0206 22.1692L72.9013 26.6876L74.0409 26.7177L73.9845 28.8569L72.285 28.8121ZM68.0714 27.0002C68.5912 27.014 69.0344 26.8989 69.401 26.6552C69.7675 26.4115 69.9571 26.0497 69.9698 25.5698L70.0025 24.3303L68.4231 24.2886C67.2102 24.2565 66.593 24.6471 66.5715 25.4601L66.561 25.86C66.5515 26.2198 66.6842 26.4968 66.9592 26.6908C67.2342 26.8848 67.6049 26.9879 68.0714 27.0002ZM54.4506 16.2776L50.0874 17.3787L53.503 30.9143L57.8662 29.8133C59.6891 29.3533 60.8933 28.4307 61.4788 27.0453C62.0643 25.6599 62.0814 23.8748 61.53 21.69C60.9787 19.5051 60.1167 17.9419 58.944 17.0002C57.7713 16.0585 56.2735 15.8176 54.4506 16.2776ZM58.7849 26.2606C58.5244 26.9176 57.9611 27.3554 57.0949 27.574L55.7956 27.9018L53.5348 18.9427L54.8341 18.6148C55.7003 18.3962 56.4039 18.5144 56.945 18.9691C57.486 19.4239 57.8887 20.1749 58.1529 21.2221L58.7744 23.6849C59.0419 24.745 59.0454 25.6035 58.7849 26.2606Z" fill="#F4BA23"/>
</svg>
